<?xml version="1.0" encoding="UTF-8" standalone="no"?>
<svg
   version="1.1"
   width="7.1986in"
   height="2.6270in"
   viewBox="0 0 518.2974 189.1412"
   id="svg24"
   sodipodi:docname="Kurikulum Merdeka.cdr"
   xmlns:inkscape="http://www.inkscape.org/namespaces/inkscape"
   xmlns:sodipodi="http://sodipodi.sourceforge.net/DTD/sodipodi-0.dtd"
   xmlns="http://www.w3.org/2000/svg"
   xmlns:svg="http://www.w3.org/2000/svg">
  <defs
     id="defs24" />
  <sodipodi:namedview
     id="namedview24"
     pagecolor="#ffffff"
     bordercolor="#000000"
     borderopacity="0.25"
     inkscape:showpageshadow="2"
     inkscape:pageopacity="0.0"
     inkscape:pagecheckerboard="0"
     inkscape:deskcolor="#d1d1d1"
     inkscape:document-units="in" />
  <g
     id="Layer1000">
    <path
       d="  M125.1986,5.5383 C124.5736,5.3348 124.2513,5.2407 124.2315,5.2554 C124.0081,5.4663 123.8837,5.7685 123.8811,6.0968 C123.8170,9.7126 123.8023,13.8325 123.8369,18.4558 C123.8420,19.3487 123.4797,19.9811 122.7506,20.3530 C118.8862,22.3274 114.8063,22.5930 110.5104,21.1493 C102.6527,18.5077 94.4379,14.9882 86.9746,19.7802 C86.4933,19.2940 86.2551,18.5352 86.2603,17.5034 C86.2849,8.8719 86.2974,4.5363 86.2974,4.4966 C86.3271,3.6680 86.6795,2.9835 87.3541,2.4429 C91.7368,-1.0990 99.2744,-0.2806 104.1185,1.6988 C110.0713,4.1244 116.4779,7.1603 122.2296,3.4325 C122.4431,3.2984 122.6639,3.2862 122.8921,3.3953 C123.5220,3.6978 124.2910,4.4121 125.1986,5.5383 Z"
       style="fill-rule: evenodd; fill: #0686c0; "
       id="path1" />
    <path
       d="  M125.1986,5.5383 C125.5212,11.2280 125.6006,16.2111 125.4368,20.4871 C125.3971,21.5487 124.8216,22.3946 123.7105,23.0244 C117.7727,26.3730 111.9611,24.6317 105.5024,22.3027 C100.5616,20.5316 94.4005,19.2966 89.2811,22.1465 C89.0580,22.2704 88.8471,22.2531 88.6487,22.0944 C87.8700,21.4892 87.3119,20.7179 86.9746,19.7802 C94.4379,14.9882 102.6527,18.5077 110.5104,21.1493 C114.8063,22.5930 118.8862,22.3274 122.7506,20.3530 C123.4797,19.9811 123.8420,19.3487 123.8369,18.4558 C123.8023,13.8325 123.8170,9.7101 123.8817,6.0888 C123.8837,5.7685 124.0081,5.4663 124.2249,5.2608 C124.2490,5.2424 124.5736,5.3348 125.1986,5.5383 Z"
       style="fill-rule: evenodd; fill: #046ea0; "
       id="path2" />
    <path
       d="  M62.5757,36.2767 A19.5846,19.5846 0.0000 0,1 42.9911,55.8612 A19.5846,19.5846 0.0000 1,1 62.5757,36.2767 Z"
       style="fill-rule: evenodd; fill: #ffcc08; "
       id="path3" />
    <path
       d="  M300.5298,29.9197 A5.8337,6.6224 -89.7000 0,1 293.8769,35.7187 A5.8337,6.6224 -89.7000 1,1 300.5298,29.9197 Z"
       style="fill-rule: evenodd; fill: #203b70; "
       id="path4" />
    <path
       d="  M175.4101,49.2018 C175.4113,49.2287 175.4169,49.2534 175.4266,49.2766 C175.4700,49.3787 175.5850,49.4277 175.6834,49.3860 C175.7072,49.3758 175.7290,49.3608 175.7469,49.3415 C182.1696,43.0824 189.3172,36.1502 197.1899,28.5457 C198.7078,27.0774 199.9131,26.2389 200.8060,26.0306 C205.8883,24.8550 209.5940,31.1797 205.6056,34.9449 C199.5684,40.6346 193.6032,46.2203 187.7100,51.7020 C187.6465,51.7584 187.6099,51.8394 187.6099,51.9248 C187.6099,52.0064 187.6436,52.0846 187.7029,52.1408 C196.9690,61.0798 203.4550,67.3824 207.1607,71.0484 C210.1297,73.9874 207.9048,78.5710 204.4372,79.5385 C201.3494,80.4090 199.6750,78.5786 197.2644,76.2347 C190.0664,69.2501 182.8860,62.2358 175.7228,55.1917 C175.6840,55.1517 175.6301,55.1290 175.5743,55.1290 C175.4592,55.1290 175.3659,55.2223 175.3659,55.3374 C175.3659,55.3382 175.3659,55.3394 175.3659,55.3405 C175.3557,63.6990 175.3631,68.9374 175.3877,71.0558 C175.4274,74.0965 175.2168,76.0686 174.7553,76.9714 C173.5600,79.3077 171.4938,80.2726 168.5571,79.8659 C165.2383,79.4143 163.5814,77.4153 163.5866,73.8683 C163.5917,59.2940 163.5792,45.5284 163.5494,32.5712 C163.5344,28.3844 165.2879,26.1547 168.8100,25.8817 C172.4114,25.5991 175.3804,27.6378 175.3804,31.4549 C175.3705,40.4734 175.3804,46.3890 175.4101,49.2018 Z"
       style="fill-rule: evenodd; fill: #203b70; "
       id="path5" />
    <path
       d="  M319.8688,63.6968 C319.8192,66.0827 319.8291,69.4361 319.8986,73.7569 C319.9184,75.1657 319.6950,76.3413 319.2287,77.2838 C317.4282,80.9076 310.6942,80.7437 308.9305,77.0828 C308.5982,76.3883 308.4296,75.1904 308.4245,73.4890 C308.3749,58.2996 308.3700,43.9954 308.4097,30.5770 C308.4321,24.4383 319.8912,23.6568 319.8614,31.4626 C319.8416,35.9867 319.8390,44.6579 319.8538,57.4761 C319.8538,57.9869 320.0349,58.0615 320.3972,57.6992 C323.3140,54.7875 327.7885,50.3549 333.8206,44.4022 C335.3386,42.9041 336.5736,42.0435 337.5261,41.8204 C341.1201,40.9944 344.6249,44.2610 343.8062,47.9738 C343.5979,48.9362 342.7398,50.1367 341.2318,51.5752 C337.8586,54.7997 334.9341,57.5827 332.4589,59.9241 C332.3792,59.9998 332.3344,60.1050 332.3344,60.2147 C332.3344,60.3281 332.3823,60.4361 332.4660,60.5120 C339.1829,66.7077 342.9556,70.2150 343.7838,71.0334 C348.1444,75.3418 341.5368,82.9463 336.8341,78.6753 C330.3556,72.7821 324.8838,67.7123 320.4193,63.4660 C320.0573,63.1188 319.8736,63.1956 319.8688,63.6968 Z"
       style="fill-rule: evenodd; fill: #203b70; "
       id="path6" />
    <path
       d="  M400.1987,25.8608 L401.5976,25.8582 C404.3631,25.8537 406.6095,28.0922 406.6143,30.8574 L406.6909,74.8928 C406.6960,77.6582 404.4574,79.9047 401.6923,79.9095 L400.2931,79.9118 C397.5279,79.9166 395.2814,77.6781 395.2766,74.9129 L395.1995,30.8772 C395.1950,28.1120 397.4335,25.8656 400.1987,25.8608 Z"
       style="fill-rule: evenodd; fill: #203b70; "
       id="path7" />
    <path
       d="  M107.1916,59.0238 C107.1420,58.6865 107.0203,58.4830 106.8270,58.4135 C106.6881,58.3690 106.5044,58.4235 106.2763,58.5774 C83.7153,73.6923 58.8008,81.9244 31.5320,83.2737 C28.7243,83.4126 25.0064,83.2218 20.3780,82.7008 C22.1638,82.3238 23.9000,82.0063 25.5866,81.7483 C51.7119,77.7078 73.5140,62.3200 87.4434,40.1014 C89.3285,37.1001 91.7294,35.0787 94.6463,34.0370 C105.7927,30.0637 116.3290,41.5599 111.3883,52.3270 C110.8525,53.4977 109.4536,55.7300 107.1916,59.0238 Z"
       style="fill-rule: evenodd; fill: #316ab4; "
       id="path8" />
    <path
       d="  M471.0835,46.4783 C471.1034,46.8751 471.2400,46.9199 471.4929,46.6123 C474.7819,42.5843 479.1594,40.9198 484.6260,41.6194 C488.7286,42.1452 491.5933,44.2261 493.2204,47.8624 C493.2567,47.9361 493.3318,47.9832 493.4143,47.9832 C493.4812,47.9832 493.5441,47.9523 493.5849,47.8993 C497.3153,42.7603 502.2612,40.7018 508.4223,41.7237 C516.8231,43.1223 518.4303,50.6974 518.2889,57.8704 C518.2841,58.0093 518.2617,63.8379 518.2220,75.3565 C518.2072,81.3912 506.7184,82.0089 506.7556,74.2703 C506.8001,65.1030 506.7703,58.7832 506.6663,55.3107 C506.6067,53.2049 505.6319,51.0024 503.3401,50.6305 C498.4588,49.8416 495.0584,52.6765 494.9169,57.5133 C494.8328,60.4151 494.8078,66.0555 494.8427,74.4338 C494.8648,81.9641 483.2422,81.9045 483.3315,74.1660 C483.4208,66.4027 483.4083,60.3136 483.2943,55.8986 C483.1826,51.7317 481.0992,49.9533 477.0884,50.5559 C472.8620,51.1960 471.3888,54.8940 471.4036,58.8302 C471.4384,66.9013 471.4209,72.4076 471.3514,75.3491 C471.2102,81.4209 459.9669,81.8303 459.9519,74.6124 C459.9173,58.3118 459.8923,49.4399 459.8776,47.9962 C459.8379,44.0031 461.5988,41.8997 465.1605,41.6863 C468.5238,41.4853 470.8976,43.0109 471.0835,46.4783 Z"
       style="fill-rule: evenodd; fill: #203b70; "
       id="path9" />
    <path
       d="  M237.3934,74.9398 C235.5032,77.5145 232.9509,79.2853 229.8555,79.7766 C219.4980,81.4209 213.1656,76.0635 213.0316,65.7652 C212.9522,59.9564 212.9349,54.1474 212.9794,48.3386 C212.9893,46.5528 213.1432,45.3027 213.4409,44.5884 C215.0853,40.6670 221.9905,40.6148 223.8729,44.3426 C224.2301,45.0570 224.4087,46.3269 224.4087,48.1524 C224.4138,55.9457 224.4461,61.9554 224.5056,66.1819 C224.5204,67.1542 224.9246,68.2183 225.7183,69.3740 C227.0951,71.3682 230.9049,71.4725 232.6757,70.7357 C236.9616,68.9426 237.5048,65.8023 237.5345,61.2485 C237.5694,56.5557 237.5668,51.8632 237.5271,47.1702 C237.4974,42.9514 240.4590,41.4184 244.2688,41.7311 C247.2301,41.9839 249.0384,44.0898 249.0310,47.0809 C248.9763,61.9580 248.9689,70.5869 249.0086,72.9680 C249.0432,75.2896 248.7135,76.9042 248.0190,77.8122 C246.8384,79.3500 245.1220,80.0592 242.8699,79.9401 C239.8141,79.7814 238.1202,78.1495 237.7877,75.0441 C237.7429,74.6722 237.6116,74.6374 237.3934,74.9398 Z"
       style="fill-rule: evenodd; fill: #203b70; "
       id="path10" />
    <path
       d="  M268.8089,47.6093 C268.7990,47.9466 268.9033,47.9863 269.1215,47.7283 C269.2653,47.5549 269.6746,46.9967 270.3492,46.0542 C272.5668,42.9661 276.5254,41.6341 280.3425,41.6418 C283.8991,41.6418 285.2609,43.9781 284.8516,47.1926 C284.3084,51.4488 280.2679,51.3074 277.0237,51.6424 C272.2989,52.1410 269.2777,54.8940 269.2553,59.9837 C269.2256,68.9624 269.2208,73.8337 269.2406,74.5977 C269.4042,81.5698 258.1313,81.8824 257.8411,74.9548 C257.8360,74.8358 257.8088,65.9611 257.7591,48.3310 C257.7591,46.2277 258.0420,44.7744 258.6076,43.9707 C259.6442,42.5072 261.1052,41.7410 262.9902,41.6716 C266.9834,41.5176 268.9231,43.4971 268.8089,47.6093 Z"
       style="fill-rule: evenodd; fill: #203b70; "
       id="path11" />
    <path
       d="  M293.2189,41.6778 L294.6027,41.6801 C297.3807,41.6852 299.6291,43.9415 299.6243,46.7192 L299.5750,74.8905 C299.5702,77.6682 297.3138,79.9166 294.5361,79.9118 L293.1523,79.9092 C290.3746,79.9044 288.1261,77.6480 288.1310,74.8704 L288.1800,46.6991 C288.1851,43.9217 290.4415,41.6730 293.2191,41.6781 Z"
       style="fill-rule: evenodd; fill: #203b70; "
       id="path12" />
    <path
       d="  M374.8796,75.0070 C370.5936,80.0617 364.9881,81.4037 358.0631,79.0325 C353.2564,77.3881 350.6817,72.0901 350.5329,67.3651 C350.2502,58.5995 350.2327,51.6050 350.4807,46.3816 C350.7265,41.0465 358.3383,40.1386 360.9652,43.7848 C361.5653,44.6182 361.8604,46.2824 361.8505,48.7774 C361.8306,53.6241 361.8357,59.1999 361.8655,65.5047 C361.8754,66.8293 362.2300,68.0423 362.9296,69.1435 C364.6261,71.8223 369.3509,71.4798 371.5016,70.0512 C373.6843,68.5979 374.8201,66.4722 374.9094,63.6744 C375.0236,60.1722 375.0508,54.7081 374.9913,47.2819 C374.9664,44.0575 376.4398,42.2246 379.4111,41.7830 C382.4025,41.3365 384.4809,42.0905 385.6467,44.0450 C386.1825,44.9478 386.4453,46.7957 386.4353,49.5887 C386.4107,57.4563 386.4033,65.3139 386.4132,73.1616 C386.4206,76.8895 385.4531,79.4716 381.5243,79.8806 C377.7593,80.2675 375.6660,78.6801 375.2442,75.1184 C375.2096,74.8009 375.0880,74.7638 374.8796,75.0070 Z"
       style="fill-rule: evenodd; fill: #203b70; "
       id="path13" />
    <path
       d="  M439.5934,74.9622 C437.5845,77.5020 435.2233,79.0795 432.5097,79.6946 C430.1237,80.2403 427.5839,80.2355 424.8901,79.6799 C417.3452,78.1396 415.1871,71.5618 415.1500,64.7532 C415.0953,54.1327 415.1151,48.0609 415.2095,46.5378 C415.4774,42.2742 419.0788,41.1656 422.7622,41.8723 C426.0660,42.5049 426.5867,45.2730 426.5867,48.4427 C426.5867,55.8638 426.6065,61.2635 426.6462,64.6415 C426.6836,68.1389 427.8144,71.1748 431.7358,71.1377 C436.8552,71.0881 439.4843,68.3646 439.6232,62.9674 C439.7323,58.8651 439.7522,53.8894 439.6827,48.0410 C439.6283,43.1249 442.0616,41.0587 446.9825,41.8425 C450.4723,42.4006 451.1494,44.9677 451.1568,48.3089 C451.1866,60.8542 451.1792,69.5650 451.1344,74.4415 C451.1047,77.5020 449.6635,79.2780 446.8113,79.7692 C442.7484,80.4685 440.4643,78.8984 439.9583,75.0589 C439.9135,74.7414 439.7919,74.7094 439.5934,74.9622 Z"
       style="fill-rule: evenodd; fill: #203b70; "
       id="path14" />
    <path
       d="  M107.1916,59.0238 C88.1203,86.4584 60.9239,103.4685 27.8266,108.8558 C24.2549,109.4363 20.3533,109.7487 16.1218,109.7935 C13.1751,109.8232 10.1469,109.4139 7.6765,107.8960 C-3.3511,101.1396 0.0420,84.2261 13.0711,82.8944 C15.1843,82.6809 17.6199,82.6166 20.3780,82.7008 C25.0064,83.2218 28.7243,83.4126 31.5320,83.2737 C58.8008,81.9244 83.7153,73.6923 106.2763,58.5774 C106.5044,58.4235 106.6881,58.3690 106.8270,58.4135 C107.0203,58.4830 107.1420,58.6865 107.1916,59.0238 Z"
       style="fill-rule: evenodd; fill: #203b70; "
       id="path15" />
    <path
       d="  M174.7627,122.7555 C174.4651,122.2047 174.3188,122.2421 174.3239,122.8671 C174.3437,128.2096 174.3486,136.2260 174.3386,146.9163 C174.3338,149.6494 174.0212,151.4727 173.4012,152.3854 C170.8265,156.1654 163.7280,154.9154 163.7056,149.4014 C163.6313,129.9260 163.6064,114.9846 163.6311,104.5772 C163.6461,99.7631 168.6538,97.2405 172.6274,99.7109 C173.5549,100.2912 174.4775,101.4596 175.3954,103.2157 C178.9421,110.0316 184.0269,119.6751 190.6492,132.1461 C190.6628,132.1722 190.6826,132.1994 190.7059,132.2229 C190.8309,132.3479 191.0358,132.3454 191.1637,132.2175 C191.1864,132.1951 191.2056,132.1693 191.2209,132.1413 C196.4999,122.0199 201.3914,112.6979 205.8956,104.1755 C207.8155,100.5443 209.8840,97.6720 214.2445,99.1006 C216.7248,99.9193 217.9774,101.7672 218.0021,104.6443 C218.0716,111.6785 218.0866,125.4441 218.0469,145.9414 C218.0392,149.4984 218.3295,152.4821 215.2936,153.9181 C211.3053,155.7933 207.3540,153.5014 207.3467,148.8285 C207.3319,140.1625 207.3393,131.4490 207.3691,122.6886 C207.3739,121.8651 207.1854,121.8180 206.8036,122.5471 C203.2370,129.3233 199.6529,136.0624 196.0515,142.7641 C193.5884,147.3330 188.1417,147.4072 185.6489,142.8163 C180.9561,134.1700 177.3275,127.4831 174.7627,122.7555 Z"
       style="fill-rule: evenodd; fill: #203b70; "
       id="path16" />
    <path
       d="  M326.8559,149.0593 C326.8162,148.7319 326.7071,148.7069 326.5285,148.9847 C324.0879,152.7574 319.7869,154.6177 315.3149,154.6696 C291.0574,154.9749 292.2480,110.4185 318.4773,115.3145 C321.8604,115.9447 324.4796,117.6335 326.3349,120.3817 C326.6921,120.9127 326.8681,120.8580 326.8633,120.2182 C326.8582,118.0157 326.8607,112.9632 326.8706,105.0610 C326.8757,103.0966 327.1683,101.7150 327.7488,100.9162 C330.4349,97.2108 337.3104,98.4385 338.4488,102.6278 C338.6225,103.2576 338.7067,105.4256 338.7019,109.1310 C338.6968,121.8997 338.6843,134.6709 338.6645,147.4447 C338.6571,150.8675 338.0173,153.7248 334.3414,154.3124 C329.8720,155.0220 327.3766,153.2707 326.8559,149.0593 Z Z M309.7638,134.8098 C309.7936,140.3311 311.8102,145.6809 318.3953,145.6512 C324.9808,145.6140 326.9452,140.2418 326.9154,134.7205 C326.8857,129.2068 324.8691,123.8494 318.2839,123.8865 C311.6985,123.9163 309.7341,129.2961 309.7638,134.8098 Z"
       style="fill-rule: evenodd; fill: #203b70; "
       id="path17" />
    <path
       d="  M401.0717,137.7638 C401.0221,140.2194 401.0295,143.6695 401.0941,148.1142 C401.1140,149.5678 400.8832,150.7782 400.4022,151.7454 C398.5492,155.4732 391.6142,155.3023 389.8063,151.5297 C389.4639,150.8153 389.2904,149.5826 389.2853,147.8313 C389.2456,132.1954 389.2530,117.4725 389.3077,103.6621 C389.3301,97.3446 401.1313,96.5483 401.0941,104.5772 C401.0692,109.2353 401.0593,118.1619 401.0644,131.3572 C401.0644,131.8830 401.2503,131.9598 401.6225,131.5879 C404.6287,128.5917 409.2369,124.0328 415.4477,117.9113 C417.0152,116.3687 418.2877,115.4832 419.2648,115.2550 C422.9705,114.4069 426.5719,117.7702 425.7312,121.5947 C425.5129,122.5868 424.6274,123.8221 423.0746,125.3004 C419.6021,128.6189 416.5911,131.4814 414.0414,133.8871 C414.0400,133.8880 414.0371,133.8908 414.0343,133.8936 C413.8716,134.0563 413.8693,134.3180 414.0292,134.4776 C414.0326,134.4813 414.0363,134.4847 414.0397,134.4881 C420.9508,140.8737 424.8332,144.4878 425.6864,145.3314 C430.1734,149.7736 423.3648,157.5941 418.5283,153.1964 C411.8613,147.1246 406.2334,141.9009 401.6446,137.5257 C401.2727,137.1685 401.0817,137.2479 401.0717,137.7638 Z"
       style="fill-rule: evenodd; fill: #203b70; "
       id="path18" />
    <path
       d="  M80.2851,133.5226 C80.9895,133.4829 81.4187,133.4531 81.5723,133.4333 C82.8275,133.2496 82.8547,132.9494 81.6542,132.5327 C76.9292,130.8810 72.5689,130.7024 66.2366,129.9881 C64.1605,129.7573 62.3823,130.1071 60.2467,129.8392 C58.5105,129.6162 56.8610,129.6085 55.2986,129.8169 C53.4158,130.0626 51.6450,129.9807 50.1494,129.9285 C48.4478,129.8690 44.7174,130.2732 38.9582,131.1415 C37.7527,131.3249 35.4138,131.7912 31.9414,132.5404 C29.6297,133.0364 27.2733,133.4208 24.8723,133.6935 C48.4603,107.6726 84.4671,99.7778 116.2769,115.0021 C118.8615,116.2372 120.7392,117.5244 121.9099,118.8638 C129.6261,127.6665 123.6660,141.6852 111.7752,141.7374 C110.3715,141.7422 108.5284,141.2289 106.2465,140.1970 C99.5992,137.1810 94.1525,135.1621 89.9062,134.1403 C87.7830,133.6292 84.5762,133.4234 80.2851,133.5226 Z"
       style="fill-rule: evenodd; fill: #0686c0; "
       id="path19" />
    <path
       d="  M454.9740,149.3940 C453.5949,151.5421 452.0820,152.9484 450.4351,153.6131 C442.1458,156.9467 432.1378,152.6085 431.2077,143.2329 C431.0490,141.6356 431.2449,140.0754 431.7953,138.5527 C434.6824,130.5462 447.8678,131.6548 454.7730,131.2455 C455.0014,131.2347 455.1840,131.0664 455.1897,130.8600 C455.3164,126.9298 454.3860,123.8939 450.0927,123.7825 C446.1117,123.6855 442.7782,124.8242 439.0801,126.2007 C436.5130,127.1531 433.9905,127.3762 432.9711,124.6082 C429.8309,116.1108 446.4020,114.7045 451.3056,114.9426 C461.5370,115.4336 466.3885,120.8506 466.4852,130.9853 C466.5348,136.9182 466.5447,142.8659 466.5149,148.8285 C466.4925,153.4867 463.1068,155.2575 458.9623,154.2308 C456.8491,153.7050 455.6585,152.1275 455.3906,149.4984 C455.3461,149.0717 455.2070,149.0369 454.9740,149.3940 Z Z M455.2271,137.6447 C455.2220,137.2530 455.0236,137.0520 454.6318,137.0421 C452.0869,136.9826 449.6040,137.1362 447.1832,137.5036 C438.8049,138.7757 442.8454,148.6947 450.0556,146.2093 C453.5626,144.9989 455.2866,142.1442 455.2271,137.6447 Z"
       style="fill-rule: evenodd; fill: #203b70; "
       id="path20" />
    <path
       d="  M238.2267,137.2280 C237.9438,137.2331 237.8149,137.3746 237.8398,137.6524 C238.5094,145.6291 245.8908,147.3403 252.2381,144.9147 C255.7278,143.5754 260.2295,140.6733 262.0973,145.1231 C263.6821,148.8954 260.5124,151.2320 257.1117,152.5788 C242.3860,158.3901 226.0383,152.1771 226.3433,134.3409 C226.5219,123.7748 233.1147,115.7610 243.8819,114.9647 C255.4152,114.1240 263.0942,122.6886 262.6330,133.9690 C262.5437,136.1863 261.3804,137.2827 259.1433,137.2578 C249.1475,137.1736 242.1754,137.1637 238.2267,137.2280 Z Z M238.1298,131.2977 L252.5207,131.2679 C252.6361,131.2676 252.7294,131.1744 252.7294,131.0593 L252.7291,130.8662 C252.6517,126.4289 249.5220,122.9729 245.7391,123.0389 C245.7391,123.0389 245.7383,123.0389 245.7383,123.0389 L244.7597,123.0384 C240.8533,123.1053 237.8472,126.6704 237.9231,131.0006 C237.9231,131.0014 237.9231,131.0026 237.9231,131.0034 L237.9214,131.0893 C237.9217,131.2041 238.0150,131.2974 238.1301,131.2974 L238.1298,131.2977 Z"
       style="fill-rule: evenodd; fill: #203b70; "
       id="path21" />
    <path
       d="  M281.4287,121.3342 C281.5775,121.1556 281.9993,120.5802 282.6938,119.6079 C284.9783,116.4231 289.0559,115.0466 292.9921,115.0540 C296.6604,115.0540 298.0593,117.4649 297.6426,120.7763 C297.0845,125.1663 292.9175,125.0175 289.5766,125.3673 C284.7027,125.8807 281.5926,128.7156 281.5702,133.9617 C281.5404,143.2131 281.5356,148.2333 281.5554,149.0221 C281.7264,156.2100 270.1111,156.5300 269.8135,149.3940 C269.8087,149.2702 269.7789,140.1250 269.7242,121.9592 C269.7194,119.7916 270.0094,118.2934 270.5947,117.4649 C271.6614,115.9569 273.1669,115.1657 275.1114,115.0914 C279.2239,114.9327 281.2229,116.9714 281.1090,121.2077 C281.0991,121.5550 281.2056,121.5972 281.4287,121.3342 Z"
       style="fill-rule: evenodd; fill: #203b70; "
       id="path22" />
    <path
       d="  M357.3561,137.6597 C358.0260,145.6364 365.4147,147.3403 371.7618,144.9071 C375.2518,143.5677 379.7461,140.6585 381.6213,145.1081 C383.2061,148.8807 380.0438,151.2247 376.6431,152.5714 C361.9176,158.3977 345.5623,152.1992 345.8526,134.3560 C346.0238,123.7898 352.6089,115.7683 363.3761,114.9647 C374.9094,114.1092 382.5958,122.6735 382.1494,133.9540 C382.0601,136.1716 380.8970,137.2703 378.6596,137.2504 C368.6641,137.1711 361.6917,137.1662 357.7431,137.2357 C357.4604,137.2405 357.3315,137.3820 357.3561,137.6597 Z Z M357.6912,131.2679 L371.9925,131.2977 C372.1280,131.2974 372.2380,131.1874 372.2380,131.0519 L372.2380,130.9181 C372.2369,131.0272 372.2369,131.0244 372.2369,131.0244 C372.3131,126.6738 369.2707,123.0914 365.4417,123.0242 L364.3954,123.0233 C364.5190,123.0242 364.5181,123.0242 364.5181,123.0242 C360.6902,122.9573 357.5234,126.4292 357.4466,130.7789 L357.4454,131.0224 C357.4454,131.1576 357.5554,131.2676 357.6909,131.2676 L357.6912,131.2679 Z"
       style="fill-rule: evenodd; fill: #203b70; "
       id="path23" />
    <path
       d="  M80.2851,133.5226 C71.7877,133.8500 63.9771,136.6651 56.8536,141.9681 C43.7128,151.7604 33.9381,163.8221 27.5289,178.1532 C26.0456,181.4621 24.8873,183.5901 24.0540,184.5377 C15.8763,193.8090 0.4810,188.1465 0.0048,175.8243 C-0.0746,173.7162 0.8308,170.5561 2.7207,166.3444 C8.2369,154.0769 15.6209,143.1933 24.8723,133.6935 C27.2733,133.4208 29.6297,133.0364 31.9414,132.5404 C35.4138,131.7912 37.7527,131.3249 38.9582,131.1415 C44.7174,130.2732 48.4478,129.8690 50.1494,129.9285 C51.6450,129.9807 53.4158,130.0626 55.2986,129.8169 C56.8610,129.6085 58.5105,129.6162 60.2467,129.8392 C62.3823,130.1071 64.1605,129.7573 66.2366,129.9881 C72.5689,130.7024 76.9292,130.8810 81.6542,132.5327 C82.8547,132.9494 82.8275,133.2496 81.5723,133.4333 C81.4187,133.4531 80.9895,133.4829 80.2851,133.5226 Z"
       style="fill-rule: evenodd; fill: #046ea0; "
       id="path24" />
  </g>
</svg>
