<svg xmlns="http://www.w3.org/2000/svg" viewBox="0 0 2000 1000">
  <defs>
    <linearGradient id="field-sky" x1="0" y1="0" x2="0" y2="1">
      <stop offset="0%" stop-color="#93c5fd"/>
      <stop offset="52%" stop-color="#a7f3d0"/>
      <stop offset="100%" stop-color="#ecfccb"/>
    </linearGradient>
  </defs>
  <rect width="2000" height="1000" fill="url(#field-sky)"/>
  <rect y="610" width="2000" height="390" fill="#15803d"/>
  <g fill="#0f172a" opacity="0.18">
    <rect x="0" y="470" width="160" height="150"/>
    <rect x="240" y="490" width="180" height="130"/>
    <rect x="620" y="470" width="220" height="150"/>
    <rect x="1180" y="470" width="220" height="150"/>
    <rect x="1580" y="490" width="180" height="130"/>
    <rect x="1840" y="470" width="160" height="150"/>
  </g>
  <g fill="#f8fafc" opacity="0.88">
    <path d="M160 760 L560 760" stroke="#f8fafc" stroke-width="10"/>
    <path d="M720 760 L1280 760" stroke="#f8fafc" stroke-width="10"/>
    <path d="M1440 760 L1840 760" stroke="#f8fafc" stroke-width="10"/>
    <circle cx="1000" cy="760" r="70" fill="none" stroke="#f8fafc" stroke-width="10"/>
  </g>
  <g>
    <rect x="860" y="440" width="280" height="180" rx="18" fill="#0f766e"/>
    <rect x="920" y="390" width="160" height="70" rx="16" fill="#f59e0b"/>
  </g>
  <g fill="#f8fafc" font-family="Arial, sans-serif" font-size="34" opacity="0.78">
    <text x="250" y="555">Arah Gerbang</text>
    <text x="930" y="360">Lapangan Pusat</text>
    <text x="1500" y="555">Koridor Kegiatan</text>
  </g>
</svg>
